HIERARCHY
ROOT Root
{
  OFFSET 0.0 0.0 0.0
  CHANNELS 6 Xposition Yposition Zposition Zrotation Yrotation Xrotation
  JOINT Hips
  {
    OFFSET 0.0 100.0 0.0
    CHANNELS 6 Xposition Yposition Zposition Zrotation Yrotation Xrotation
    JOINT Spine1
    {
      OFFSET 5.003913 -0.037094 -0.013727
      CHANNELS 3 Zrotation Yrotation Xrotation
      JOINT Spine2
      {
        OFFSET 7.125363 -1e-06 0.0
        CHANNELS 3 Zrotation Yrotation Xrotation
        JOINT Chest
        {
          OFFSET 7.594027 1e-06 0.0
          CHANNELS 3 Zrotation Yrotation Xrotation
          JOINT Neck1
          {
            OFFSET 26.313086 -0.460272 -0.181672
            CHANNELS 3 Zrotation Yrotation Xrotation
            JOINT Neck2
            {
              OFFSET 8.045911 0.0 0.0
              CHANNELS 3 Zrotation Yrotation Xrotation
              JOINT Head
              {
                OFFSET 6.432774 0.0 0.0
                CHANNELS 3 Zrotation Yrotation Xrotation
                JOINT HeadEnd
                {
                  OFFSET 16.169773 0.06451 0.00362
                  CHANNELS 3 Zrotation Yrotation Xrotation
                }
                JOINT Jaw
                {
                  OFFSET 0.108741 3.12938 0.002639
                  CHANNELS 3 Zrotation Yrotation Xrotation
                }
                JOINT LeftEye
                {
                  OFFSET 4.45173 8.166359 3.206392
                  CHANNELS 3 Zrotation Yrotation Xrotation
                }
                JOINT RightEye
                {
                  OFFSET 4.436895 8.135758 -3.222429
                  CHANNELS 3 Zrotation Yrotation Xrotation
                }
              }
            }
          }
          JOINT LeftShoulder
          {
            OFFSET 23.218927 5.195579 1.621656
            CHANNELS 3 Zrotation Yrotation Xrotation
            JOINT LeftArm
            {
              OFFSET 15.902118 2e-06 -2e-06
              CHANNELS 3 Zrotation Yrotation Xrotation
              JOINT LeftForeArm
              {
                OFFSET 28.739307 0.0 -1e-06
                CHANNELS 3 Zrotation Yrotation Xrotation
                JOINT LeftHand
                {
                  OFFSET 27.093981 -4e-06 0.0
                  CHANNELS 3 Zrotation Yrotation Xrotation
                  JOINT LeftHandThumb1
                  {
                    OFFSET 2.276781 3.380274 0.83384
                    CHANNELS 3 Zrotation Yrotation Xrotation
                    JOINT LeftHandThumb2
                    {
                      OFFSET 4.705309 -1e-06 -1e-06
                      CHANNELS 3 Zrotation Yrotation Xrotation
                      JOINT LeftHandThumb3
                      {
                        OFFSET 2.798515 0.0 3e-06
                        CHANNELS 3 Zrotation Yrotation Xrotation
                        JOINT LeftHandThumbEnd
                        {
                          OFFSET 3.180793 4e-06 -4e-06
                          CHANNELS 3 Zrotation Yrotation Xrotation
                        }
                      }
                    }
                  }
                  JOINT LeftHandIndex1
                  {
                    OFFSET 3.247786 2.352677 0.137192
                    CHANNELS 3 Zrotation Yrotation Xrotation
                    JOINT LeftHandIndex2
                    {
                      OFFSET 6.367095 1e-06 0.0
                      CHANNELS 3 Zrotation Yrotation Xrotation
                      JOINT LeftHandIndex3
                      {
                        OFFSET 3.662364 0.0 0.0
                        CHANNELS 3 Zrotation Yrotation Xrotation
                        JOINT LeftHandIndex4
                        {
                          OFFSET 2.329242 4e-06 -4e-06
                          CHANNELS 3 Zrotation Yrotation Xrotation
                          JOINT LeftHandIndexEnd
                          {
                            OFFSET 2.767823 1e-06 0.0
                            CHANNELS 3 Zrotation Yrotation Xrotation
                          }
                        }
                      }
                    }
                  }
                  JOINT LeftHandMiddle1
                  {
                    OFFSET 3.163612 0.945023 -0.406112
                    CHANNELS 3 Zrotation Yrotation Xrotation
                    JOINT LeftHandMiddle2
                    {
                      OFFSET 6.276789 3e-06 0.0
                      CHANNELS 3 Zrotation Yrotation Xrotation
                      JOINT LeftHandMiddle3
                      {
                        OFFSET 4.35652 -1e-06 4e-06
                        CHANNELS 3 Zrotation Yrotation Xrotation
                        JOINT LeftHandMiddle4
                        {
                          OFFSET 2.996877 0.0 8e-06
                          CHANNELS 3 Zrotation Yrotation Xrotation
                          JOINT LeftHandMiddleEnd
                          {
                            OFFSET 2.323256 3e-06 -4e-06
                            CHANNELS 3 Zrotation Yrotation Xrotation
                          }
                        }
                      }
                    }
                  }
                  JOINT LeftHandRing1
                  {
                    OFFSET 2.882606 -0.309162 0.107445
                    CHANNELS 3 Zrotation Yrotation Xrotation
                    JOINT LeftHandRing2
                    {
                      OFFSET 6.033198 0.0 4e-06
                      CHANNELS 3 Zrotation Yrotation Xrotation
                      JOINT LeftHandRing3
                      {
                        OFFSET 4.350578 3e-06 0.0
                        CHANNELS 3 Zrotation Yrotation Xrotation
                        JOINT LeftHandRing4
                        {
                          OFFSET 2.651321 2e-06 -7e-06
                          CHANNELS 3 Zrotation Yrotation Xrotation
                          JOINT LeftHandRingEnd
                          {
                            OFFSET 1.937663 1e-06 -4e-06
                            CHANNELS 3 Zrotation Yrotation Xrotation
                          }
                        }
                      }
                    }
                  }
                  JOINT LeftHandPinky1
                  {
                    OFFSET 2.865315 -1.525436 0.575687
                    CHANNELS 3 Zrotation Yrotation Xrotation
                    JOINT LeftHandPinky2
                    {
                      OFFSET 5.54936 1e-06 -8e-06
                      CHANNELS 3 Zrotation Yrotation Xrotation
                      JOINT LeftHandPinky3
                      {
                        OFFSET 3.070974 0.0 -4e-06
                        CHANNELS 3 Zrotation Yrotation Xrotation
                        JOINT LeftHandPinky4
                        {
                          OFFSET 1.549672 1e-06 0.0
                          CHANNELS 3 Zrotation Yrotation Xrotation
                          JOINT LeftHandPinkyEnd
                          {
                            OFFSET 1.952123 0.0 0.0
                            CHANNELS 3 Zrotation Yrotation Xrotation
                          }
                        }
                      }
                    }
                  }
                }
              }
            }
          }
          JOINT RightShoulder
          {
            OFFSET 23.161716 5.296122 -1.380114
            CHANNELS 3 Zrotation Yrotation Xrotation
            JOINT RightArm
            {
              OFFSET -16.027195 -2e-06 1.1e-05
              CHANNELS 3 Zrotation Yrotation Xrotation
              JOINT RightForeArm
              {
                OFFSET -28.736639 4e-06 2e-06
                CHANNELS 3 Zrotation Yrotation Xrotation
                JOINT RightHand
                {
                  OFFSET -27.133619 6e-06 0.0
                  CHANNELS 3 Zrotation Yrotation Xrotation
                  JOINT RightHandThumb1
                  {
                    OFFSET -2.274328 -3.351035 -0.83067
                    CHANNELS 3 Zrotation Yrotation Xrotation
                    JOINT RightHandThumb2
                    {
                      OFFSET -4.703594 -3e-06 2e-06
                      CHANNELS 3 Zrotation Yrotation Xrotation
                      JOINT RightHandThumb3
                      {
                        OFFSET -2.794935 -4e-06 -3e-06
                        CHANNELS 3 Zrotation Yrotation Xrotation
                        JOINT RightHandThumbEnd
                        {
                          OFFSET -3.183852 4e-06 1e-06
                          CHANNELS 3 Zrotation Yrotation Xrotation
                        }
                      }
                    }
                  }
                  JOINT RightHandIndex1
                  {
                    OFFSET -3.253496 -2.33755 -0.127667
                    CHANNELS 3 Zrotation Yrotation Xrotation
                    JOINT RightHandIndex2
                    {
                      OFFSET -6.344434 0.0 0.0
                      CHANNELS 3 Zrotation Yrotation Xrotation
                      JOINT RightHandIndex3
                      {
                        OFFSET -3.654871 0.0 -8e-06
                        CHANNELS 3 Zrotation Yrotation Xrotation
                        JOINT RightHandIndex4
                        {
                          OFFSET -2.327586 -1e-06 0.0
                          CHANNELS 3 Zrotation Yrotation Xrotation
                          JOINT RightHandIndexEnd
                          {
                            OFFSET -2.770001 3e-06 8e-06
                            CHANNELS 3 Zrotation Yrotation Xrotation
                          }
                        }
                      }
                    }
                  }
                  JOINT RightHandMiddle1
                  {
                    OFFSET -3.168223 -0.944764 0.411762
                    CHANNELS 3 Zrotation Yrotation Xrotation
                    JOINT RightHandMiddle2
                    {
                      OFFSET -6.266691 -1e-06 -4e-06
                      CHANNELS 3 Zrotation Yrotation Xrotation
                      JOINT RightHandMiddle3
                      {
                        OFFSET -4.348901 0.0 0.0
                        CHANNELS 3 Zrotation Yrotation Xrotation
                        JOINT RightHandMiddle4
                        {
                          OFFSET -3.00024 2e-06 -4e-06
                          CHANNELS 3 Zrotation Yrotation Xrotation
                          JOINT RightHandMiddleEnd
                          {
                            OFFSET -2.321477 -4e-06 -4e-06
                            CHANNELS 3 Zrotation Yrotation Xrotation
                          }
                        }
                      }
                    }
                  }
                  JOINT RightHandRing1
                  {
                    OFFSET -2.885654 0.293261 -0.119232
                    CHANNELS 3 Zrotation Yrotation Xrotation
                    JOINT RightHandRing2
                    {
                      OFFSET -6.032835 -1e-06 -4e-06
                      CHANNELS 3 Zrotation Yrotation Xrotation
                      JOINT RightHandRing3
                      {
                        OFFSET -4.33881 0.0 -4e-06
                        CHANNELS 3 Zrotation Yrotation Xrotation
                        JOINT RightHandRing4
                        {
                          OFFSET -2.654903 -4e-06 -4e-06
                          CHANNELS 3 Zrotation Yrotation Xrotation
                          JOINT RightHandRingEnd
                          {
                            OFFSET -1.935122 0.0 4e-06
                            CHANNELS 3 Zrotation Yrotation Xrotation
                          }
                        }
                      }
                    }
                  }
                  JOINT RightHandPinky1
                  {
                    OFFSET -2.866241 1.503904 -0.60527
                    CHANNELS 3 Zrotation Yrotation Xrotation
                    JOINT RightHandPinky2
                    {
                      OFFSET -5.553177 -2e-06 0.0
                      CHANNELS 3 Zrotation Yrotation Xrotation
                      JOINT RightHandPinky3
                      {
                        OFFSET -3.062664 -1e-06 -4e-06
                        CHANNELS 3 Zrotation Yrotation Xrotation
                        JOINT RightHandPinky4
                        {
                          OFFSET -1.546529 2e-06 4e-06
                          CHANNELS 3 Zrotation Yrotation Xrotation
                          JOINT RightHandPinkyEnd
                          {
                            OFFSET -1.952341 0.0 -4e-06
                            CHANNELS 3 Zrotation Yrotation Xrotation
                          }
                        }
                      }
                    }
                  }
                }
              }
            }
          }
        }
      }
    }
    JOINT LeftLeg
    {
      OFFSET -8.443107 2.567604 10.043214
      CHANNELS 3 Zrotation Yrotation Xrotation
      JOINT LeftShin
      {
        OFFSET 43.229198 1e-06 -1e-06
        CHANNELS 3 Zrotation Yrotation Xrotation
        JOINT LeftFoot
        {
          OFFSET 42.298611 1e-06 1e-06
          CHANNELS 3 Zrotation Yrotation Xrotation
          JOINT LeftToeBase
          {
            OFFSET 14.165858 1e-06 0.0
            CHANNELS 3 Zrotation Yrotation Xrotation
            JOINT LeftToeEnd
            {
              OFFSET 6.7141 -0.234461 0.0
              CHANNELS 3 Zrotation Yrotation Xrotation
            }
          }
        }
      }
    }
    JOINT RightLeg
    {
      OFFSET -8.303923 2.592729 -10.047278
      CHANNELS 3 Zrotation Yrotation Xrotation
      JOINT RightShin
      {
        OFFSET -43.369682 0.0 1e-06
        CHANNELS 3 Zrotation Yrotation Xrotation
        JOINT RightFoot
        {
          OFFSET -42.260784 4e-06 2e-06
          CHANNELS 3 Zrotation Yrotation Xrotation
          JOINT RightToeBase
          {
            OFFSET -14.222245 -2e-06 -1e-06
            CHANNELS 3 Zrotation Yrotation Xrotation
            JOINT RightToeEnd
            {
              OFFSET -6.660062 0.232574 -2e-06
              CHANNELS 3 Zrotation Yrotation Xrotation
            }
          }
        }
      }
    }
  }
}
MOTION
Frames: 4
Frame Time: 0.03333333333333333
0.0 0.0 0.0 0.0 -0.0 0.0 28.426212 43.749813 277.993164 106.264435 -53.666965 74.471687 6.488073 -3.979555 0.731765 -6.281881 -1.689904 -0.467097 28.624382 -6.350227 -6.939573 10.508984 -2.057108 1.444068 -2.501678 0.275734 -0.563066 -35.543171 -1.89364 -0.493415 5e-06 -1e-06 0.0 -0.192477 0.084535 -0.049295 -0.196113 0.142939 0.020975 -0.069293 0.016772 -0.137516 62.528408 -88.103493 -50.981602 73.286163 -41.465347 -38.098942 19.059523 -0.896716 0.368269 58.377804 76.0373 59.768608 17.636629 -26.322737 52.411205 -19.46666 -14.395596 29.410389 1e-06 -8.774824 -4e-06 15.239129 -18.927195 5.866592 -0.609778 -1.795653 -3.889327 -4.807086 -11.046812 -2.93785 4e-06 -20.976015 4e-06 -5.019971 -25.03356 -4.03188 7e-06 0.0 -0.0 -10.634535 -5.686969 -3.565589 10.573276 -17.922955 -3.113901 2e-06 -13.821206 3e-06 -0.501776 -31.181505 -4.027019 -11.260339 -59.587746 8.317001 -13.982716 -7.150199 -2.875042 13.772733 -8.401493 -3.218241 0.347732 -34.211555 0.771655 -0.96303 -17.733372 2.621022 -0.0 -0.0 1e-06 -17.34642 -20.095217 -4.201779 21.757559 -1.638376 3.866423 2e-06 -6.338824 1e-06 -1.697589 -22.591742 -6.194002 0.0 -4e-06 -2e-06 130.064896 -77.497459 59.773842 91.538704 -10.270808 -40.690769 31.61491 -1.096123 -0.382905 8.709694 70.116608 18.891891 22.182119 -20.375895 49.933319 -16.701813 -16.743528 28.476532 -1e-06 -12.690603 -2e-06 16.826815 -18.01004 2.896703 -0.105919 -1.513858 -4.275881 -5.039042 -5.612872 -2.953557 3e-06 -11.020523 -1e-06 -6.111296 -15.895336 -3.840469 -1e-06 -2e-06 2e-06 -10.283371 -5.68029 -4.341838 11.028296 -11.302406 -2.372633 -1.38427 -14.238583 -6.320123 -0.625438 -26.924194 -3.8276 -3.898134 -51.076374 -3.672539 -13.708527 -7.363476 -3.720939 18.141151 -14.052745 -3.242673 7e-06 -18.787271 -1e-06 -0.429711 -8.456045 2.555504 0.0 1e-06 1e-06 -15.923539 -20.094486 -5.473586 30.419214 -7.190829 1.735927 4e-06 -8.162925 1e-06 -1.861905 -22.861479 -6.167942 1e-06 -2e-06 -1e-06 95.600418 -1.305585 -4.264325 134.363678 0.831847 0.89921 -54.176147 17.32498 -5.731673 -10.952969 1.03797 2.170883 -0.999997 1e-06 -0.0 -3.066447 -17.098219 -8.871291 33.509663 -5.2228 5.643053 -16.3592 14.858551 -5.541234 -0.415665 0.389285 1.922881 -1.000002 0.0 0.0 
0.0 0.0 0.0 0.0 -0.0 0.0 28.301651 43.754475 281.246796 105.904739 -54.475697 73.900177 6.184978 -3.932127 0.65988 -6.402589 -1.764732 -0.512039 28.46875 -5.942379 -6.81799 9.032067 -2.089656 1.377324 -2.502601 0.152147 -0.103205 -35.461685 -1.465023 -0.103233 5e-06 0.0 0.0 -0.20894 0.128886 -0.08293 -0.149824 0.170104 -0.006067 -0.019264 0.07885 -0.174273 101.57885 -87.869804 -89.928162 68.560669 -42.723331 -34.400852 21.324001 -0.99924 0.338609 60.8904 76.689102 64.963326 17.636635 -26.322729 52.41119 -19.466656 -14.395592 29.410389 2e-06 -8.774821 -3e-06 15.845325 -18.847939 5.141571 -0.609777 -1.795654 -3.889328 -4.80709 -11.046814 -2.937851 5e-06 -20.976015 2e-06 -5.019971 -25.03356 -4.031884 6e-06 1e-06 1e-06 -10.634535 -5.686973 -3.565588 10.573277 -17.922951 -3.1139 3e-06 -13.821211 2e-06 -0.501776 -31.181505 -4.02702 -10.840324 -59.373085 7.542661 -13.982716 -7.1502 -2.875042 13.772731 -8.401491 -3.218239 0.347735 -34.211552 0.771654 -0.963027 -17.73337 2.621017 0.0 1e-06 -0.0 -17.346422 -20.095221 -4.201782 21.757563 -1.638376 3.866431 2e-06 -6.338824 0.0 -1.697588 -22.591745 -6.194006 -0.0 -4e-06 -3e-06 130.362579 -77.73539 59.246632 92.654137 -11.333883 -38.267311 31.314388 -1.121192 -0.312258 5.957653 71.927086 16.918646 22.182112 -20.375896 49.9333 -16.701807 -16.743528 28.476522 -2e-06 -12.690599 -1e-06 16.631184 -17.97698 2.950787 -0.105921 -1.513856 -4.275882 -5.03904 -5.612873 -2.953556 4e-06 -11.02052 -1e-06 -6.111299 -15.89533 -3.840466 0.0 1e-06 2e-06 -10.283373 -5.680289 -4.341837 11.028294 -11.302405 -2.372633 -1.38427 -14.238581 -6.320121 -0.625441 -26.924181 -3.827596 -3.847448 -50.894276 -3.684964 -13.708525 -7.363475 -3.720939 18.141146 -14.052739 -3.242671 5e-06 -18.787268 1e-06 -0.429713 -8.456043 2.555502 -0.0 -0.0 1e-06 -15.923536 -20.094482 -5.473581 30.41921 -7.190823 1.735927 2e-06 -8.162925 -0.0 -1.861904 -22.861467 -6.167939 -0.0 -2e-06 -3e-06 100.204567 -1.278624 -3.738995 131.176956 1.004231 0.816391 -54.385738 16.814817 -5.352884 -9.069368 0.999999 2.301569 -0.999998 -0.0 -1e-06 -2.613859 -16.988153 -8.845297 30.735371 -5.082355 6.263768 -16.999819 15.466999 -4.578552 -0.18369 0.450451 1.84445 -1.000002 -1e-06 0.0 
0.0 0.0 0.0 0.0 -0.0 0.0 28.004774 44.204044 284.162872 105.092682 -55.099899 73.961761 6.033483 -3.771723 0.506085 -6.446665 -1.76437 -0.420752 28.465097 -5.29197 -6.3018 7.658915 -2.176635 1.230899 -2.548084 0.115204 0.213434 -35.572269 -1.092738 0.019137 5e-06 -0.0 -1e-06 -0.216454 0.134216 -0.095916 -0.08182 0.167754 -0.007793 0.032233 0.095928 -0.195799 119.912796 -88.079086 -108.188629 64.854317 -43.343681 -30.725849 25.56637 -0.860219 0.3529 59.815895 76.028534 68.557373 17.636629 -26.322741 52.411186 -19.466656 -14.395597 29.410385 -1e-06 -8.774821 0.0 16.538294 -18.70525 4.397778 -0.609776 -1.795655 -3.889328 -4.807086 -11.046813 -2.93785 3e-06 -20.976019 3e-06 -5.019974 -25.03356 -4.031874 6e-06 -1e-06 -0.0 -10.634531 -5.68697 -3.565588 10.573272 -17.922951 -3.1139 1e-06 -13.821213 2e-06 -0.501782 -31.181505 -4.027012 -10.571856 -59.200809 6.913367 -13.982711 -7.150198 -2.875041 13.772731 -8.401491 -3.218242 0.347729 -34.211552 0.77166 -0.963031 -17.73337 2.621022 -1e-06 -1e-06 -2e-06 -17.346413 -20.095215 -4.201779 21.757557 -1.638375 3.866426 2e-06 -6.338824 2e-06 -1.69759 -22.591745 -6.194004 -1e-06 -4e-06 -2e-06 132.152832 -78.534286 57.547813 92.772285 -11.961071 -36.099777 30.884033 -1.177928 -0.173901 3.027591 73.755051 14.669534 22.182112 -20.3759 49.933315 -16.701809 -16.743528 28.47653 -2e-06 -12.690598 -1e-06 16.437016 -17.99625 2.965029 -0.105921 -1.513855 -4.275881 -5.039041 -5.612875 -2.953556 5e-06 -11.020521 -1e-06 -6.111297 -15.895334 -3.840469 0.0 -0.0 0.0 -10.283369 -5.680289 -4.341838 11.028289 -11.302404 -2.372631 -1.384271 -14.238579 -6.320124 -0.62544 -26.924194 -3.827597 -3.705389 -50.5144 -3.83971 -13.708522 -7.363477 -3.72094 18.141146 -14.052741 -3.242673 5e-06 -18.787271 -1e-06 -0.429713 -8.456047 2.555502 0.0 -0.0 -0.0 -15.923534 -20.094484 -5.473584 30.419207 -7.190823 1.735926 2e-06 -8.162925 1e-06 -1.861905 -22.861473 -6.167942 0.0 -4e-06 -1e-06 104.018845 -1.819474 -3.176782 127.664803 1.048496 0.707686 -53.321819 16.027052 -5.260164 -8.660913 1.020046 2.378037 -1.0 -0.0 0.0 -3.926111 -16.698362 -7.32458 31.546347 -5.023511 6.225067 -19.624479 16.669386 -4.259749 -0.219419 0.488077 1.788236 -1.000003 -0.0 1e-06 
0.0 0.0 0.0 0.0 -0.0 0.0 27.660969 44.94067 286.738525 103.973602 -55.393547 74.370758 6.101974 -3.434868 0.280135 -6.45941 -1.741428 -0.202707 28.440344 -4.410418 -5.225934 6.87442 -2.577471 1.010866 -2.578021 0.314729 0.572696 -36.195438 -0.718485 -0.205364 5e-06 0.0 0.0 -0.214865 0.123864 -0.112914 0.05248 0.128864 0.006685 0.150057 0.120412 -0.239705 158.920059 -89.06205 -146.9702 62.37925 -43.094311 -28.047991 32.574867 -0.453657 0.292249 55.521053 73.772881 70.86425 17.636627 -26.322737 52.411194 -19.466652 -14.395597 29.410389 -0.0 -8.774822 -2e-06 17.459274 -18.382456 3.940875 -0.609775 -1.795655 -3.889328 -4.807087 -11.046811 -2.93785 3e-06 -20.976015 1e-06 -5.019971 -25.03356 -4.031877 7e-06 -1e-06 -3e-06 -10.634532 -5.686969 -3.565587 10.573276 -17.922951 -3.113901 3e-06 -13.821206 3e-06 -0.50178 -31.181498 -4.027012 -10.338549 -59.3825 6.835958 -13.982713 -7.150195 -2.875042 13.772729 -8.401492 -3.218243 0.347731 -34.211544 0.77166 -0.96303 -17.73337 2.621021 -1e-06 -0.0 0.0 -17.346415 -20.095215 -4.201779 21.757557 -1.638374 3.866427 1e-06 -6.338824 2e-06 -1.697589 -22.591742 -6.194004 -0.0 -4e-06 -2e-06 136.450653 -79.835464 53.197456 91.949799 -12.867208 -35.026165 30.100248 -1.266844 -0.02737 2.84607 75.458633 14.810262 22.182117 -20.375898 49.933327 -16.701817 -16.74353 28.476538 -3e-06 -12.6906 -0.0 16.223881 -17.85111 2.919203 -0.10592 -1.513856 -4.275882 -5.039044 -5.612874 -2.953558 4e-06 -11.020524 -0.0 -6.1113 -15.895334 -3.840472 1e-06 1e-06 2e-06 -10.283373 -5.680288 -4.341839 11.028296 -11.302407 -2.372634 -1.38427 -14.238583 -6.320124 -0.625438 -26.924194 -3.827599 -3.549967 -50.094341 -3.948713 -13.708526 -7.363477 -3.720941 18.141148 -14.052741 -3.242673 6e-06 -18.787271 -1e-06 -0.429712 -8.456047 2.555504 0.0 1e-06 1e-06 -15.923536 -20.094484 -5.473587 30.419222 -7.190829 1.735925 2e-06 -8.162929 2e-06 -1.861902 -22.861473 -6.167939 -1e-06 -4e-06 -2e-06 108.836731 -2.777559 -2.348583 123.042229 0.915213 0.600251 -52.097988 15.310439 -5.383959 -8.359947 1.063503 2.412167 -1.0 -0.0 0.0 -7.071873 -16.197147 -5.192506 36.64901 -5.383021 5.589185 -23.545567 16.557713 -5.019945 0.058568 0.42598 1.8509 -1.000004 0.0 1e-06 
